<svg width="80" height="60" viewBox="0 0 80 80" style="padding-top: 0.8em" fill="var(--bg-color)" xmlns="http://www.w3.org/2000/svg">
    <path d="M24.6154 34.7949C21.5043 36.265 18.3419 37 15.1282 37C10.9573 37 7.60684 35.7521 5.07692 33.2564C2.54701 30.7607 1.28205 27.4103 1.28205 23.2051C1.28205 18.7949 2.5641 15.3761 5.12821 12.9487C7.69231 10.5214 11.0598 9.30769 15.2308 9.30769C18.3419 9.30769 21.4701 10.0256 24.6154 11.4615V18.5385H21.5385V13.4103C19.6239 12.5556 17.4359 12.1282 14.9744 12.1282C11.5897 12.1282 9.00855 13.0855 7.23077 15C5.48718 16.8803 4.61538 19.5299 4.61538 22.9487C4.61538 26.4359 5.55556 29.188 7.4359 31.2051C9.35043 33.188 12.0171 34.1795 15.4359 34.1795C17.3504 34.1795 19.3846 33.8205 21.5385 33.1026V26.2308H18.4615V23.4103H27.6923V26.2308H24.6154V34.7949ZM30.7812 12.1282V9.30769H51.2941V17.5128H48.2171V12.1282H36.9351V21.1026H42.0633V18.0256H45.1402V27.2564H42.0633V23.9231H36.9351V34.1795H48.2171V28.7949H51.2941V37H30.7812V34.1795H33.8582V12.1282H30.7812ZM61.5445 34.1795H64.6214V12.1282H58.4675V17.5128H55.3906V9.30769H76.9291V17.5128H73.8522V12.1282H67.6983V34.1795H70.7752V37H61.5445V34.1795Z"/>
    <path d="M5.71605 53.7654H7.44444V42.9012H4.7284V44.8765H3.41975V41.6667H12.9506V44.8765H11.642V42.9012H8.92593V53.7654H10.6543V55H5.71605V53.7654ZM22.2995 41.4198H21.0649V40.1852H23.781V46.5062H23.8057C24.6946 45.5844 25.7069 45.1235 26.8427 45.1235C27.6657 45.1235 28.2666 45.3621 28.6452 45.8395C29.0238 46.3004 29.2131 46.9588 29.2131 47.8148V53.7654H30.4476V55H26.7439V53.7654H27.7316V48.0123C27.7316 47.3539 27.6164 46.9177 27.3859 46.7037C27.1555 46.4733 26.8345 46.358 26.4229 46.358C25.4682 46.358 24.5876 46.8272 23.781 47.7654V53.7654H24.7686V55H21.0649V53.7654H22.2995V41.4198ZM46.0434 53.1481V54.4815C45.2204 54.9918 44.2574 55.2469 43.1545 55.2469C41.8541 55.2469 40.8335 54.8107 40.0928 53.9383C39.3685 53.0658 39.0064 51.8477 39.0064 50.284C39.0064 48.6708 39.3932 47.4115 40.1669 46.5062C40.9405 45.5844 41.9117 45.1235 43.0805 45.1235C44.0352 45.1235 44.8089 45.5021 45.4014 46.2593C45.994 47.0165 46.2903 48.0946 46.2903 49.4938V50.2593H40.5373C40.5702 51.4115 40.7924 52.3086 41.2039 52.9506C41.6319 53.5926 42.3068 53.93 43.2286 53.963C44.2492 53.963 45.1875 53.6914 46.0434 53.1481ZM44.8089 49.0741C44.8089 48.1358 44.636 47.4527 44.2903 47.0247C43.9447 46.5802 43.4591 46.358 42.8335 46.358C42.2245 46.358 41.7142 46.5885 41.3027 47.0494C40.8912 47.4938 40.6442 48.1687 40.5619 49.0741H44.8089ZM54.9696 53.7654H56.2042V46.6049H54.9696V45.3704H57.6116L57.6857 46.7531H57.7351C58.0478 46.2263 58.3935 45.8395 58.7721 45.5926C59.1507 45.3457 59.6034 45.2222 60.1301 45.2222C60.3277 45.2222 60.5005 45.2387 60.6487 45.2716V46.8272C60.4017 46.7778 60.1466 46.7531 59.8832 46.7531C59.4059 46.7531 58.9861 46.8683 58.624 47.0988C58.2783 47.3128 57.9655 47.6667 57.6857 48.1605V53.7654H59.1672V55H54.9696V53.7654ZM75.9903 53.1481V54.4815C75.1673 54.9918 74.2043 55.2469 73.1014 55.2469C71.801 55.2469 70.7804 54.8107 70.0397 53.9383C69.3154 53.0658 68.9533 51.8477 68.9533 50.284C68.9533 48.6708 69.3401 47.4115 70.1138 46.5062C70.8874 45.5844 71.8586 45.1235 73.0273 45.1235C73.9821 45.1235 74.7557 45.5021 75.3483 46.2593C75.9409 47.0165 76.2372 48.0946 76.2372 49.4938V50.2593H70.4841C70.517 51.4115 70.7393 52.3086 71.1508 52.9506C71.5788 53.5926 72.2537 53.93 73.1755 53.963C74.1961 53.963 75.1343 53.6914 75.9903 53.1481ZM74.7557 49.0741C74.7557 48.1358 74.5829 47.4527 74.2372 47.0247C73.8915 46.5802 73.4059 46.358 72.7804 46.358C72.1714 46.358 71.6611 46.5885 71.2496 47.0494C70.838 47.4938 70.5911 48.1687 70.5088 49.0741H74.7557Z"/>
</svg>
