<svg width="242" height="215" fill="none" xmlns="http://www.w3.org/2000/svg"><animateTransform id="b" begin="a.end" attributeName="transform" type="translate" from="0 0" to="-250 0" dur="1s" fill="freeze"/><animateTransform begin="b.end" attributeName="transform" type="translate" from="250 0" to="0 0" dur="1s" fill="freeze"/><g filter="url(#c)" transform="translate(0 -1000)"><animateTransform id="f" begin="0s;b.end+1s" attributeName="transform" type="translate" from="0 -250" to="0 0" dur="1s" fill="freeze"/><g filter="url(#d)"><path fill="#fff" d="m55.548 28.675 181.262 84.524-42.262 90.63-181.262-84.523z"/></g><path fill-rule="evenodd" clip-rule="evenodd" d="m236.791 112.524-4.531-2.113L60.968 30.536 55.53 28l-2.536 5.438-38.458 82.474L12 121.35l5.438 2.535L188.73 203.76l4.532 2.113.906.423 43.53-93.35-.907-.422Zm-20.124 16.66a11.444 11.444 0 0 0 6.383.978l-24.353 52.224a11.44 11.44 0 0 0-4.851-4.261c-5.757-2.684-12.599-.194-15.283 5.562a11.46 11.46 0 0 0-.492 8.482l-145.26-67.736a11.457 11.457 0 0 0 6.18-5.829c2.685-5.756.194-12.598-5.562-15.283a11.45 11.45 0 0 0-5.922-1.03l24.148-51.784a11.446 11.446 0 0 0 4.596 3.874c5.756 2.684 12.598.194 15.282-5.563.948-2.032 1.25-4.2.992-6.273l142.747 66.564a11.45 11.45 0 0 0-4.167 4.793c-2.685 5.756-.194 12.598 5.562 15.282Zm-68.961-2.366c-7.002 15.016-22.823 22.459-35.337 16.624-12.513-5.835-16.98-22.739-9.979-37.755 7.002-15.016 22.823-22.459 35.337-16.623 12.513 5.835 16.981 22.738 9.979 37.754Zm-19.952-12.287c2.643 1.904 4.348 3.775 5.114 5.615.78 1.812.629 3.877-.453 6.197-1.069 2.292-2.688 3.796-4.859 4.514-2.157.689-4.526.431-7.108-.772l-.478-.223-1.562 3.349-2.393-1.115 1.724-3.698c-1.846-1.567-2.981-3.261-3.402-5.082l-1.299 2.784-4.176-1.948 3.935-8.439 3.742 1.744c-.218 1.452-.088 2.837.392 4.156.48 1.318 1.29 2.42 2.431 3.305l3.165-6.787-1.073-.765c-2.367-1.739-3.927-3.543-4.679-5.412-.739-1.899-.615-3.906.372-6.023 1.028-2.205 2.586-3.614 4.673-4.23 2.088-.615 4.364-.348 6.83.802.435.202.747.366.936.489l1.603-3.436 2.393 1.115-1.806 3.872c1.305 1.138 2.201 2.474 2.686 4.007l1.055-2.262 3.916 1.825-3.348 7.178-3.61-1.683c.25-2.355-.503-4.26-2.261-5.715l-2.941 6.308.481.33Zm-4.392-6.709c-.379.812-.429 1.601-.15 2.367.292.736.929 1.527 1.911 2.374l2.82-6.047c-1.057-.458-1.998-.561-2.821-.309-.781.236-1.368.774-1.76 1.615Zm-1.729 18.472c1.071.429 2.019.518 2.842.266.866-.267 1.515-.864 1.948-1.792.46-.986.558-1.841.295-2.564-.263-.723-.944-1.534-2.042-2.435l-3.043 6.525Z" fill="#85BB65"/><animateTransform begin="b.end" attributeName="transform" type="translate" from="0 0" to="0 -1000" dur="0.01s" fill="freeze" additive="replace"/></g><g filter="url(#e)" transform="translate(0 -1000)"><animateTransform id="i" begin="f.end" attributeName="transform" type="translate" from="0 -250" to="0 0" dur="1s" fill="freeze"/><g filter="url(#g)"><path fill="#fff" d="m53.548 21.675 181.262 84.524-42.262 90.63-181.262-84.523z"/></g><path fill-rule="evenodd" clip-rule="evenodd" d="m234.791 105.524-4.531-2.113L58.968 23.536 53.53 21l-2.536 5.438-38.458 82.474L10 114.35l5.438 2.535L186.73 196.76l4.532 2.113.906.423 43.53-93.35-.907-.422Zm-20.124 16.66a11.444 11.444 0 0 0 6.383.978l-24.353 52.224a11.44 11.44 0 0 0-4.851-4.261c-5.757-2.684-12.599-.194-15.283 5.562a11.46 11.46 0 0 0-.492 8.482l-145.26-67.736a11.457 11.457 0 0 0 6.18-5.829c2.685-5.756.194-12.599-5.562-15.283a11.447 11.447 0 0 0-5.922-1.03l24.148-51.784a11.446 11.446 0 0 0 4.596 3.874c5.756 2.684 12.598.194 15.282-5.563.948-2.032 1.25-4.2.992-6.273l142.747 66.564a11.45 11.45 0 0 0-4.167 4.793c-2.685 5.756-.194 12.598 5.562 15.282Zm-68.961-2.366c-7.002 15.016-22.823 22.459-35.337 16.624-12.513-5.835-16.98-22.739-9.979-37.755 7.002-15.016 22.823-22.459 35.337-16.623 12.513 5.835 16.981 22.738 9.979 37.754Zm-19.952-12.287c2.643 1.904 4.348 3.775 5.114 5.615.78 1.812.629 3.877-.453 6.197-1.069 2.292-2.688 3.796-4.859 4.514-2.157.689-4.526.431-7.108-.772l-.478-.223-1.562 3.349-2.393-1.115 1.724-3.698c-1.846-1.567-2.981-3.261-3.402-5.082l-1.299 2.784-4.176-1.948 3.935-8.439 3.742 1.744c-.218 1.452-.088 2.837.392 4.156.48 1.318 1.29 2.42 2.431 3.305l3.165-6.787-1.073-.765c-2.367-1.739-3.927-3.543-4.679-5.412-.739-1.899-.615-3.906.372-6.023 1.028-2.205 2.586-3.614 4.673-4.23 2.088-.615 4.364-.348 6.83.802.435.202.747.366.936.49l1.603-3.437 2.393 1.115-1.806 3.872c1.305 1.138 2.201 2.474 2.686 4.007l1.055-2.262 3.916 1.825-3.348 7.178-3.61-1.683c.25-2.355-.503-4.26-2.261-5.715l-2.941 6.308.481.33Zm-4.392-6.709c-.379.812-.429 1.601-.15 2.367.292.736.929 1.527 1.911 2.374l2.82-6.047c-1.057-.458-1.998-.561-2.821-.31-.781.237-1.368.775-1.76 1.616Zm-1.729 18.472c1.071.429 2.019.518 2.842.266.866-.267 1.515-.864 1.948-1.792.46-.986.558-1.841.295-2.564-.263-.723-.944-1.534-2.042-2.435l-3.043 6.525Z" fill="#85BB65"/><animateTransform begin="b.end" attributeName="transform" type="translate" from="0 0" to="0 -1000" dur="0.01s" fill="freeze" additive="replace"/></g><g filter="url(#h)" transform="translate(0 -1000)"><animateTransform id="l" begin="i.end" attributeName="transform" type="translate" from="0 -250" to="0 0" dur="1s" fill="freeze"/><g filter="url(#j)"><path fill="#fff" d="M51.548 14.675 232.81 99.199l-42.262 90.63L9.286 105.306z"/></g><path fill-rule="evenodd" clip-rule="evenodd" d="m232.791 98.524-4.531-2.113L56.968 16.536 51.53 14l-2.536 5.438-38.458 82.474L8 107.35l5.438 2.535L184.73 189.76l4.532 2.113.906.423 43.53-93.35-.907-.422Zm-20.124 16.66a11.444 11.444 0 0 0 6.383.978l-24.353 52.224a11.44 11.44 0 0 0-4.851-4.261c-5.757-2.684-12.599-.194-15.283 5.562a11.46 11.46 0 0 0-.492 8.482l-145.26-67.736a11.457 11.457 0 0 0 6.18-5.829c2.685-5.756.194-12.599-5.562-15.283a11.447 11.447 0 0 0-5.922-1.03l24.148-51.784a11.446 11.446 0 0 0 4.596 3.874c5.756 2.684 12.598.194 15.282-5.563.948-2.032 1.25-4.2.992-6.273L211.272 95.11a11.445 11.445 0 0 0-4.167 4.793c-2.685 5.756-.194 12.598 5.562 15.282Zm-68.961-2.366c-7.002 15.016-22.823 22.459-35.337 16.624-12.513-5.835-16.98-22.739-9.979-37.755 7.002-15.016 22.823-22.459 35.337-16.623 12.513 5.835 16.981 22.738 9.979 37.754Zm-19.952-12.287c2.643 1.904 4.348 3.775 5.114 5.615.78 1.812.629 3.877-.453 6.197-1.069 2.292-2.688 3.796-4.859 4.514-2.157.689-4.526.431-7.108-.772l-.478-.223-1.562 3.349-2.393-1.115 1.724-3.698c-1.846-1.567-2.981-3.261-3.402-5.082l-1.299 2.784-4.176-1.948 3.935-8.439 3.742 1.744c-.218 1.452-.088 2.837.392 4.156.48 1.318 1.29 2.42 2.431 3.305l3.165-6.787-1.073-.765c-2.367-1.739-3.927-3.543-4.679-5.412-.739-1.899-.615-3.906.372-6.023 1.028-2.205 2.586-3.614 4.673-4.23 2.088-.615 4.364-.348 6.83.802.435.202.747.366.936.49l1.603-3.437 2.393 1.115-1.806 3.872c1.305 1.138 2.201 2.474 2.686 4.007l1.055-2.262 3.916 1.825-3.348 7.178-3.61-1.683c.25-2.355-.503-4.26-2.261-5.715l-2.941 6.308.481.33Zm-4.392-6.709c-.379.812-.429 1.601-.15 2.367.292.736.929 1.528 1.911 2.374l2.82-6.047c-1.057-.458-1.998-.561-2.821-.31-.781.237-1.368.775-1.76 1.616Zm-1.729 18.472c1.071.429 2.019.518 2.842.266.866-.267 1.515-.864 1.948-1.792.46-.986.558-1.841.295-2.564-.263-.723-.944-1.534-2.042-2.435l-3.043 6.525Z" fill="#85BB65"/><animateTransform begin="b.end" attributeName="transform" type="translate" from="0 0" to="0 -1000" dur="0.01s" fill="freeze" additive="replace"/></g><g filter="url(#k)" transform="translate(0 -1000)"><animateTransform id="o" begin="l.end" attributeName="transform" type="translate" from="0 -250" to="0 0" dur="1s" fill="freeze"/><g filter="url(#m)"><path fill="#fff" d="M49.548 7.676 230.809 92.2l-42.261 90.63L7.286 98.307z"/></g><path fill-rule="evenodd" clip-rule="evenodd" d="m230.791 91.524-4.531-2.113L54.968 9.536 49.53 7l-2.536 5.438L8.536 94.912 6 100.35l5.438 2.535L182.73 182.76l4.532 2.113.906.423 43.53-93.35-.907-.422Zm-20.124 16.66a11.444 11.444 0 0 0 6.383.978l-24.353 52.224a11.44 11.44 0 0 0-4.851-4.261c-5.757-2.684-12.599-.194-15.283 5.562a11.46 11.46 0 0 0-.492 8.482l-145.26-67.736a11.457 11.457 0 0 0 6.18-5.829c2.685-5.756.194-12.599-5.562-15.283a11.447 11.447 0 0 0-5.922-1.03l24.148-51.784a11.446 11.446 0 0 0 4.596 3.874c5.756 2.684 12.598.194 15.282-5.563.948-2.032 1.25-4.2.992-6.273L209.272 88.11a11.445 11.445 0 0 0-4.167 4.793c-2.685 5.756-.194 12.598 5.562 15.282Zm-68.961-2.366c-7.002 15.016-22.823 22.459-35.337 16.624-12.513-5.835-16.98-22.738-9.979-37.755 7.002-15.016 22.823-22.459 35.337-16.623 12.513 5.835 16.981 22.738 9.979 37.754Zm-19.952-12.287c2.643 1.903 4.348 3.775 5.114 5.615.78 1.812.629 3.877-.453 6.197-1.069 2.292-2.688 3.796-4.859 4.514-2.157.689-4.526.431-7.108-.772l-.478-.223-1.562 3.349-2.393-1.115 1.724-3.698c-1.846-1.567-2.981-3.261-3.402-5.082l-1.299 2.784-4.176-1.948 3.935-8.44 3.742 1.745c-.218 1.452-.088 2.837.392 4.156.48 1.318 1.29 2.42 2.431 3.305l3.165-6.787-1.073-.765c-2.367-1.74-3.927-3.543-4.679-5.412-.739-1.899-.615-3.906.372-6.023 1.028-2.205 2.586-3.614 4.673-4.23 2.088-.615 4.364-.348 6.83.802.435.202.747.366.936.49l1.603-3.437 2.393 1.115-1.806 3.872c1.305 1.138 2.201 2.474 2.686 4.007l1.055-2.262 3.916 1.825-3.348 7.178-3.61-1.683c.25-2.355-.503-4.26-2.261-5.715l-2.941 6.308.481.33Zm-4.392-6.709c-.379.812-.429 1.601-.15 2.367.292.736.929 1.528 1.911 2.374l2.82-6.047c-1.057-.458-1.998-.561-2.821-.31-.781.237-1.368.775-1.76 1.616Zm-1.729 18.472c1.071.429 2.019.518 2.842.266.866-.267 1.515-.864 1.948-1.792.46-.986.558-1.841.295-2.564-.263-.723-.944-1.534-2.042-2.435l-3.043 6.525Z" fill="#85BB65"/><animateTransform begin="b.end" attributeName="transform" type="translate" from="0 0" to="0 -1000" dur="0.01s" fill="freeze" additive="replace"/></g><g filter="url(#n)" transform="translate(0 -1000)"><animateTransform id="q" begin="o.end" attributeName="transform" type="translate" from="0 -250" to="0 0" dur="1s" fill="freeze"/><g filter="url(#p)"><path fill="#fff" d="M47.548.676 228.809 85.2l-42.261 90.63L5.286 91.307z"/></g><path fill-rule="evenodd" clip-rule="evenodd" d="m228.791 84.524-4.531-2.113L52.968 2.536 47.53 0l-2.536 5.438L6.536 87.912 4 93.35l5.438 2.535L180.73 175.76l4.532 2.113.906.423 43.53-93.35-.907-.422Zm-20.124 16.66a11.444 11.444 0 0 0 6.383.978l-24.353 52.224a11.44 11.44 0 0 0-4.851-4.261c-5.757-2.684-12.599-.194-15.283 5.562a11.46 11.46 0 0 0-.492 8.482L24.811 96.433a11.46 11.46 0 0 0 6.18-5.829c2.685-5.756.194-12.599-5.562-15.283a11.447 11.447 0 0 0-5.922-1.03l24.148-51.784a11.446 11.446 0 0 0 4.596 3.874c5.756 2.684 12.598.194 15.282-5.563.948-2.032 1.25-4.2.992-6.273L207.272 81.11a11.445 11.445 0 0 0-4.167 4.793c-2.685 5.756-.194 12.598 5.562 15.282Zm-68.961-2.366c-7.002 15.016-22.823 22.459-35.337 16.624-12.513-5.835-16.98-22.738-9.979-37.755 7.002-15.016 22.823-22.459 35.337-16.623 12.513 5.835 16.981 22.738 9.979 37.754Zm-19.952-12.287c2.643 1.903 4.348 3.775 5.114 5.615.78 1.812.629 3.877-.453 6.198-1.069 2.291-2.688 3.795-4.859 4.513-2.157.689-4.526.431-7.108-.772l-.478-.223-1.562 3.349-2.393-1.115 1.724-3.698c-1.846-1.567-2.981-3.261-3.402-5.082l-1.299 2.784-4.176-1.948 3.935-8.44 3.742 1.745c-.218 1.452-.088 2.837.392 4.156.48 1.318 1.29 2.42 2.431 3.305l3.165-6.787-1.073-.765c-2.367-1.74-3.927-3.543-4.679-5.412-.739-1.899-.615-3.906.372-6.023 1.028-2.205 2.586-3.614 4.673-4.23 2.088-.615 4.364-.348 6.83.802.435.202.747.366.936.49l1.603-3.437 2.393 1.115-1.806 3.872c1.305 1.138 2.201 2.474 2.686 4.007l1.055-2.262 3.916 1.825-3.348 7.178-3.61-1.683c.25-2.355-.503-4.26-2.261-5.715l-2.941 6.308.481.33Zm-4.392-6.709c-.379.812-.429 1.601-.15 2.367.292.736.929 1.528 1.911 2.374l2.82-6.047c-1.057-.458-1.998-.561-2.821-.31-.781.237-1.368.775-1.76 1.616Zm-1.729 18.472c1.071.43 2.019.518 2.842.266.866-.267 1.515-.864 1.948-1.792.46-.986.558-1.84.295-2.564-.263-.723-.944-1.534-2.042-2.435l-3.043 6.525Z" fill="#85BB65"/><animateTransform begin="b.end" attributeName="transform" type="translate" from="0 0" to="0 -1000" dur="0.01s" fill="freeze" additive="replace"/></g><path fill="#C4C4C4" d="m131.262 39 13.595 6.34L131.262 39z"><animate id="a" begin="q.end" attributeName="height" from="0" to="103" dur="2s" fill="freeze"/><animate begin="b.end" attributeName="height" from="103" to="0" dur="0.01s" fill="freeze" additive="replace"/></path><path fill="#C4C4C4" d="m87.912 131.471 13.594 6.34-13.594-6.34z"><animate begin="q.end" attributeName="height" from="0" to="23" dur="2s" fill="freeze"/><animateTransform begin="q.end" attributeName="transform" type="translate" from="0 23" to="0 0" dur="2s" fill="freeze" additive="sum"/><animate begin="b.end" attributeName="height" from="23" to="0" dur="0.01s" fill="freeze" additive="replace"/></path><defs><filter id="c" x="8" y="28" width="233.698" height="186.296" filterUnits="userSpaceOnUse" color-interpolation-filters="sRGB"><feFlood flood-opacity="0" result="BackgroundImageFix"/><feColorMatrix in="SourceAlpha" values="0 0 0 0 0 0 0 0 0 0 0 0 0 0 0 0 0 0 127 0" result="hardAlpha"/><feOffset dy="4"/><feGaussianBlur stdDeviation="2"/><feColorMatrix values="0 0 0 0 0 0 0 0 0 0 0 0 0 0 0 0 0 0 0.25 0"/><feBlend in2="BackgroundImageFix" result="effect1_dropShadow"/><feBlend in="SourceGraphic" in2="effect1_dropShadow" result="shape"/></filter><filter id="d" x="9.286" y="28.675" width="231.523" height="183.154" filterUnits="userSpaceOnUse" color-interpolation-filters="sRGB"><feFlood flood-opacity="0" result="BackgroundImageFix"/><feColorMatrix in="SourceAlpha" values="0 0 0 0 0 0 0 0 0 0 0 0 0 0 0 0 0 0 127 0" result="hardAlpha"/><feOffset dy="4"/><feGaussianBlur stdDeviation="2"/><feColorMatrix values="0 0 0 0 0 0 0 0 0 0 0 0 0 0 0 0 0 0 0.25 0"/><feBlend in2="BackgroundImageFix" result="effect1_dropShadow"/><feBlend in="SourceGraphic" in2="effect1_dropShadow" result="shape"/></filter><filter id="e" x="6" y="21" width="233.698" height="186.296" filterUnits="userSpaceOnUse" color-interpolation-filters="sRGB"><feFlood flood-opacity="0" result="BackgroundImageFix"/><feColorMatrix in="SourceAlpha" values="0 0 0 0 0 0 0 0 0 0 0 0 0 0 0 0 0 0 127 0" result="hardAlpha"/><feOffset dy="4"/><feGaussianBlur stdDeviation="2"/><feColorMatrix values="0 0 0 0 0 0 0 0 0 0 0 0 0 0 0 0 0 0 0.25 0"/><feBlend in2="BackgroundImageFix" result="effect1_dropShadow"/><feBlend in="SourceGraphic" in2="effect1_dropShadow" result="shape"/></filter><filter id="g" x="7.286" y="21.675" width="231.523" height="183.154" filterUnits="userSpaceOnUse" color-interpolation-filters="sRGB"><feFlood flood-opacity="0" result="BackgroundImageFix"/><feColorMatrix in="SourceAlpha" values="0 0 0 0 0 0 0 0 0 0 0 0 0 0 0 0 0 0 127 0" result="hardAlpha"/><feOffset dy="4"/><feGaussianBlur stdDeviation="2"/><feColorMatrix values="0 0 0 0 0 0 0 0 0 0 0 0 0 0 0 0 0 0 0.25 0"/><feBlend in2="BackgroundImageFix" result="effect1_dropShadow"/><feBlend in="SourceGraphic" in2="effect1_dropShadow" result="shape"/></filter><filter id="h" x="4" y="14" width="233.698" height="186.296" filterUnits="userSpaceOnUse" color-interpolation-filters="sRGB"><feFlood flood-opacity="0" result="BackgroundImageFix"/><feColorMatrix in="SourceAlpha" values="0 0 0 0 0 0 0 0 0 0 0 0 0 0 0 0 0 0 127 0" result="hardAlpha"/><feOffset dy="4"/><feGaussianBlur stdDeviation="2"/><feColorMatrix values="0 0 0 0 0 0 0 0 0 0 0 0 0 0 0 0 0 0 0.25 0"/><feBlend in2="BackgroundImageFix" result="effect1_dropShadow"/><feBlend in="SourceGraphic" in2="effect1_dropShadow" result="shape"/></filter><filter id="j" x="5.286" y="14.675" width="231.523" height="183.154" filterUnits="userSpaceOnUse" color-interpolation-filters="sRGB"><feFlood flood-opacity="0" result="BackgroundImageFix"/><feColorMatrix in="SourceAlpha" values="0 0 0 0 0 0 0 0 0 0 0 0 0 0 0 0 0 0 127 0" result="hardAlpha"/><feOffset dy="4"/><feGaussianBlur stdDeviation="2"/><feColorMatrix values="0 0 0 0 0 0 0 0 0 0 0 0 0 0 0 0 0 0 0.25 0"/><feBlend in2="BackgroundImageFix" result="effect1_dropShadow"/><feBlend in="SourceGraphic" in2="effect1_dropShadow" result="shape"/></filter><filter id="k" x="2" y="7" width="233.698" height="186.296" filterUnits="userSpaceOnUse" color-interpolation-filters="sRGB"><feFlood flood-opacity="0" result="BackgroundImageFix"/><feColorMatrix in="SourceAlpha" values="0 0 0 0 0 0 0 0 0 0 0 0 0 0 0 0 0 0 127 0" result="hardAlpha"/><feOffset dy="4"/><feGaussianBlur stdDeviation="2"/><feColorMatrix values="0 0 0 0 0 0 0 0 0 0 0 0 0 0 0 0 0 0 0.25 0"/><feBlend in2="BackgroundImageFix" result="effect1_dropShadow"/><feBlend in="SourceGraphic" in2="effect1_dropShadow" result="shape"/></filter><filter id="m" x="3.286" y="7.676" width="231.523" height="183.154" filterUnits="userSpaceOnUse" color-interpolation-filters="sRGB"><feFlood flood-opacity="0" result="BackgroundImageFix"/><feColorMatrix in="SourceAlpha" values="0 0 0 0 0 0 0 0 0 0 0 0 0 0 0 0 0 0 127 0" result="hardAlpha"/><feOffset dy="4"/><feGaussianBlur stdDeviation="2"/><feColorMatrix values="0 0 0 0 0 0 0 0 0 0 0 0 0 0 0 0 0 0 0.25 0"/><feBlend in2="BackgroundImageFix" result="effect1_dropShadow"/><feBlend in="SourceGraphic" in2="effect1_dropShadow" result="shape"/></filter><filter id="n" x="0" y="0" width="233.698" height="186.296" filterUnits="userSpaceOnUse" color-interpolation-filters="sRGB"><feFlood flood-opacity="0" result="BackgroundImageFix"/><feColorMatrix in="SourceAlpha" values="0 0 0 0 0 0 0 0 0 0 0 0 0 0 0 0 0 0 127 0" result="hardAlpha"/><feOffset dy="4"/><feGaussianBlur stdDeviation="2"/><feColorMatrix values="0 0 0 0 0 0 0 0 0 0 0 0 0 0 0 0 0 0 0.25 0"/><feBlend in2="BackgroundImageFix" result="effect1_dropShadow"/><feBlend in="SourceGraphic" in2="effect1_dropShadow" result="shape"/></filter><filter id="p" x="1.286" y=".676" width="231.523" height="183.154" filterUnits="userSpaceOnUse" color-interpolation-filters="sRGB"><feFlood flood-opacity="0" result="BackgroundImageFix"/><feColorMatrix in="SourceAlpha" values="0 0 0 0 0 0 0 0 0 0 0 0 0 0 0 0 0 0 127 0" result="hardAlpha"/><feOffset dy="4"/><feGaussianBlur stdDeviation="2"/><feColorMatrix values="0 0 0 0 0 0 0 0 0 0 0 0 0 0 0 0 0 0 0.25 0"/><feBlend in2="BackgroundImageFix" result="effect1_dropShadow"/><feBlend in="SourceGraphic" in2="effect1_dropShadow" result="shape"/></filter></defs></svg>