<svg width="242" height="215" viewBox="0 0 242 215" fill="none" xmlns="http://www.w3.org/2000/svg">
    <animateTransform id="loopOut" begin="band.end" attributeName="transform" type="translate" from="0 0" to="-250 0"
        dur="1s" fill="freeze" />
    <animateTransform id="loopIn" begin="loopOut.end" attributeName="transform" type="translate" from="250 0" to="0 0"
        dur="1s" fill="freeze" />

    <g filter="url(#filter0_d)" transform="translate(0 -1000)" visibility="visible">
        <animateTransform id="first" begin="0s;loopOut.end+1s" attributeName="transform" type="translate" from="0 -250"
            to="0 0" dur="1s" fill="freeze" />
        <g filter="url(#filter1_d)">
            <rect x="55.5481" y="28.6755" width="200" height="100" transform="rotate(25 55.5481 28.6755)"
                fill="white" />
        </g>
        <path fill-rule="evenodd" clip-rule="evenodd"
            d="M236.791 112.524L232.26 110.411L60.9675 30.5357L55.5297 28L52.994 33.4378L14.5357 115.912L12 121.35L17.4378 123.885L188.73 203.76L193.262 205.873L194.168 206.296L237.698 112.946L236.791 112.524ZM216.667 129.184C218.735 130.149 220.944 130.445 223.05 130.162L198.697 182.386C197.561 180.591 195.914 179.089 193.846 178.125C188.089 175.441 181.247 177.931 178.563 183.687C177.271 186.458 177.178 189.48 178.071 192.169L32.8101 124.433C35.444 123.389 37.6995 121.375 38.9915 118.604C41.6757 112.848 39.1853 106.006 33.4291 103.321C31.5111 102.427 29.4726 102.107 27.5074 102.291L51.6549 50.5067C52.7771 52.1304 54.3325 53.4864 56.2505 54.3807C62.0067 57.0649 68.8489 54.5745 71.5331 48.8183C72.4809 46.7858 72.7835 44.6178 72.525 42.5453L215.272 109.109C213.519 110.244 212.052 111.869 211.105 113.902C208.42 119.658 210.911 126.5 216.667 129.184ZM147.706 126.818C140.704 141.834 124.883 149.277 112.369 143.442C99.8559 137.607 95.3881 120.703 102.39 105.687C109.392 90.6711 125.213 83.2284 137.727 89.0635C150.24 94.8987 154.708 111.802 147.706 126.818ZM127.754 114.531C130.397 116.435 132.102 118.306 132.868 120.146C133.648 121.958 133.497 124.023 132.415 126.343C131.346 128.635 129.727 130.139 127.556 130.857C125.399 131.546 123.03 131.288 120.448 130.085L119.97 129.862L118.408 133.211L116.015 132.096L117.739 128.398C115.893 126.831 114.758 125.137 114.337 123.316L113.038 126.1L108.862 124.152L112.797 115.713L116.539 117.457C116.321 118.909 116.451 120.294 116.931 121.613C117.411 122.931 118.221 124.033 119.362 124.918L122.527 118.131L121.454 117.366C119.087 115.627 117.527 113.823 116.775 111.954C116.036 110.055 116.16 108.048 117.147 105.931C118.175 103.726 119.733 102.317 121.82 101.701C123.908 101.086 126.184 101.353 128.65 102.503C129.085 102.705 129.397 102.869 129.586 102.992L131.189 99.5556L133.582 100.671L131.776 104.543C133.081 105.681 133.977 107.017 134.462 108.55L135.517 106.288L139.433 108.113L136.085 115.291L132.475 113.608C132.725 111.253 131.972 109.348 130.214 107.893L127.273 114.201L127.754 114.531ZM123.362 107.822C122.983 108.634 122.933 109.423 123.212 110.189C123.504 110.925 124.141 111.716 125.123 112.563L127.943 106.516C126.886 106.058 125.945 105.955 125.122 106.207C124.341 106.443 123.754 106.981 123.362 107.822ZM121.633 126.294C122.704 126.723 123.652 126.812 124.475 126.56C125.341 126.293 125.99 125.696 126.423 124.768C126.883 123.782 126.981 122.927 126.718 122.204C126.455 121.481 125.774 120.67 124.676 119.769L121.633 126.294Z"
            fill="#85BB65" />
        <animateTransform begin="loopOut.end" attributeName="transform" type="translate" from="0 0" to="0 -1000"
            dur="0.01s" fill="freeze" additive="replace" />
    </g>
    <g filter="url(#filter2_d)" transform="translate(0 -1000)" visibility="visible">
        <animateTransform id="second" begin="first.end" attributeName="transform" type="translate" from="0 -250"
            to="0 0" dur="1s" fill="freeze" />
        <g filter="url(#filter3_d)">
            <rect x="53.5481" y="21.6755" width="200" height="100" transform="rotate(25 53.5481 21.6755)"
                fill="white" />
        </g>
        <path fill-rule="evenodd" clip-rule="evenodd"
            d="M234.791 105.524L230.26 103.411L58.9675 23.5357L53.5297 21L50.994 26.4378L12.5357 108.912L10 114.35L15.4378 116.885L186.73 196.76L191.262 198.873L192.168 199.296L235.698 105.946L234.791 105.524ZM214.667 122.184C216.735 123.149 218.944 123.445 221.05 123.162L196.697 175.386C195.561 173.591 193.914 172.089 191.846 171.125C186.089 168.441 179.247 170.931 176.563 176.687C175.271 179.458 175.178 182.48 176.071 185.169L30.8101 117.433C33.444 116.389 35.6995 114.375 36.9915 111.604C39.6757 105.848 37.1853 99.0055 31.4291 96.3214C29.5111 95.427 27.4726 95.1071 25.5074 95.2911L49.6549 43.5067C50.7771 45.1304 52.3325 46.4864 54.2505 47.3807C60.0067 50.0649 66.8489 47.5745 69.5331 41.8183C70.4809 39.7858 70.7835 37.6178 70.525 35.5453L213.272 102.109C211.519 103.244 210.052 104.869 209.105 106.902C206.42 112.658 208.911 119.5 214.667 122.184ZM145.706 119.818C138.704 134.834 122.883 142.277 110.369 136.442C97.8559 130.607 93.3881 113.703 100.39 98.6873C107.392 83.6711 123.213 76.2284 135.727 82.0635C148.24 87.8987 152.708 104.802 145.706 119.818ZM125.754 107.531C128.397 109.435 130.102 111.306 130.868 113.146C131.648 114.958 131.497 117.023 130.415 119.343C129.346 121.635 127.727 123.139 125.556 123.857C123.399 124.546 121.03 124.288 118.448 123.085L117.97 122.862L116.408 126.211L114.015 125.096L115.739 121.398C113.893 119.831 112.758 118.137 112.337 116.316L111.038 119.1L106.862 117.152L110.797 108.713L114.539 110.457C114.321 111.909 114.451 113.294 114.931 114.613C115.411 115.931 116.221 117.033 117.362 117.918L120.527 111.131L119.454 110.366C117.087 108.627 115.527 106.823 114.775 104.954C114.036 103.055 114.16 101.048 115.147 98.9306C116.175 96.7264 117.733 95.3167 119.82 94.7013C121.908 94.0859 124.184 94.353 126.65 95.5025C127.085 95.7054 127.397 95.8687 127.586 95.9923L129.189 92.5556L131.582 93.6713L129.776 97.5431C131.081 98.6813 131.977 100.017 132.462 101.55L133.517 99.2876L137.433 101.113L134.085 108.291L130.475 106.608C130.725 104.253 129.972 102.348 128.214 100.893L125.273 107.201L125.754 107.531ZM121.362 100.822C120.983 101.634 120.933 102.423 121.212 103.189C121.504 103.925 122.141 104.716 123.123 105.563L125.943 99.5161C124.886 99.0582 123.945 98.955 123.122 99.2066C122.341 99.4427 121.754 99.9813 121.362 100.822ZM119.633 119.294C120.704 119.723 121.652 119.812 122.475 119.56C123.341 119.293 123.99 118.696 124.423 117.768C124.883 116.782 124.981 115.927 124.718 115.204C124.455 114.481 123.774 113.67 122.676 112.769L119.633 119.294Z"
            fill="#85BB65" />
        <animateTransform begin="loopOut.end" attributeName="transform" type="translate" from="0 0" to="0 -1000"
            dur="0.01s" fill="freeze" additive="replace" />
    </g>
    <g filter="url(#filter4_d)" transform="translate(0 -1000)" visibility="visible">
        <animateTransform id="third" begin="second.end" attributeName="transform" type="translate" from="0 -250"
            to="0 0" dur="1s" fill="freeze" />
        <g filter="url(#filter5_d)">
            <rect x="51.5481" y="14.6755" width="200" height="100" transform="rotate(25 51.5481 14.6755)"
                fill="white" />
        </g>
        <path fill-rule="evenodd" clip-rule="evenodd"
            d="M232.791 98.5237L228.26 96.4106L56.9675 16.5357L51.5297 14L48.994 19.4378L10.5357 101.912L8 107.35L13.4378 109.885L184.73 189.76L189.262 191.873L190.168 192.296L233.698 98.9463L232.791 98.5237ZM212.667 115.184C214.735 116.149 216.944 116.445 219.05 116.162L194.697 168.386C193.561 166.591 191.914 165.089 189.846 164.125C184.089 161.441 177.247 163.931 174.563 169.687C173.271 172.458 173.178 175.48 174.071 178.169L28.8101 110.433C31.444 109.389 33.6995 107.375 34.9915 104.604C37.6757 98.8478 35.1853 92.0055 29.4291 89.3214C27.5111 88.427 25.4726 88.1071 23.5074 88.2911L47.6549 36.5067C48.7771 38.1304 50.3325 39.4864 52.2505 40.3807C58.0067 43.0649 64.8489 40.5745 67.5331 34.8183C68.4809 32.7858 68.7835 30.6178 68.525 28.5453L211.272 95.1095C209.519 96.2436 208.052 97.869 207.105 99.9015C204.42 105.658 206.911 112.5 212.667 115.184ZM143.706 112.818C136.704 127.834 120.883 135.277 108.369 129.442C95.8559 123.607 91.3881 106.703 98.3903 91.6873C105.392 76.6711 121.213 69.2284 133.727 75.0635C146.24 80.8987 150.708 97.802 143.706 112.818ZM123.754 100.531C126.397 102.435 128.102 104.306 128.868 106.146C129.648 107.958 129.497 110.023 128.415 112.343C127.346 114.635 125.727 116.139 123.556 116.857C121.399 117.546 119.03 117.288 116.448 116.085L115.97 115.862L114.408 119.211L112.015 118.096L113.739 114.398C111.893 112.831 110.758 111.137 110.337 109.316L109.038 112.1L104.862 110.152L108.797 101.713L112.539 103.457C112.321 104.909 112.451 106.294 112.931 107.613C113.411 108.931 114.221 110.033 115.362 110.918L118.527 104.131L117.454 103.366C115.087 101.627 113.527 99.8227 112.775 97.9535C112.036 96.0554 112.16 94.0477 113.147 91.9306C114.175 89.7264 115.733 88.3167 117.82 87.7013C119.908 87.0859 122.184 87.353 124.65 88.5025C125.085 88.7054 125.397 88.8687 125.586 88.9923L127.189 85.5556L129.582 86.6713L127.776 90.5431C129.081 91.6813 129.977 93.0169 130.462 94.5498L131.517 92.2876L135.433 94.1133L132.085 101.291L128.475 99.6076C128.725 97.2529 127.972 95.348 126.214 93.8928L123.273 100.201L123.754 100.531ZM119.362 93.8223C118.983 94.6344 118.933 95.4231 119.212 96.1886C119.504 96.925 120.141 97.7165 121.123 98.5629L123.943 92.5161C122.886 92.0582 121.945 91.955 121.122 92.2066C120.341 92.4427 119.754 92.9813 119.362 93.8223ZM117.633 112.294C118.704 112.723 119.652 112.812 120.475 112.56C121.341 112.293 121.99 111.696 122.423 110.768C122.883 109.782 122.981 108.927 122.718 108.204C122.455 107.481 121.774 106.67 120.676 105.769L117.633 112.294Z"
            fill="#85BB65" />
        <animateTransform begin="loopOut.end" attributeName="transform" type="translate" from="0 0" to="0 -1000"
            dur="0.01s" fill="freeze" additive="replace" />
    </g>
    <g filter="url(#filter6_d)" transform="translate(0 -1000)" visibility="visible">
        <animateTransform id="fourth" begin="third.end" attributeName="transform" type="translate" from="0 -250"
            to="0 0" dur="1s" fill="freeze" />
        <g filter="url(#filter7_d)">
            <rect x="49.5481" y="7.67554" width="200" height="100" transform="rotate(25 49.5481 7.67554)"
                fill="white" />
        </g>
        <path fill-rule="evenodd" clip-rule="evenodd"
            d="M230.791 91.5237L226.26 89.4106L54.9675 9.53571L49.5297 7L46.994 12.4378L8.53572 94.9118L6 100.35L11.4378 102.885L182.73 182.76L187.262 184.873L188.168 185.296L231.698 91.9463L230.791 91.5237ZM210.667 108.184C212.735 109.149 214.944 109.445 217.05 109.162L192.697 161.386C191.561 159.591 189.914 158.089 187.846 157.125C182.089 154.441 175.247 156.931 172.563 162.687C171.271 165.458 171.178 168.48 172.071 171.169L26.8101 103.433C29.444 102.389 31.6995 100.375 32.9915 97.604C35.6757 91.8478 33.1853 85.0055 27.4291 82.3214C25.5111 81.427 23.4726 81.1071 21.5074 81.2911L45.6549 29.5067C46.7771 31.1304 48.3325 32.4864 50.2505 33.3807C56.0067 36.0649 62.8489 33.5745 65.5331 27.8183C66.4809 25.7858 66.7835 23.6178 66.525 21.5453L209.272 88.1095C207.519 89.2436 206.052 90.869 205.105 92.9015C202.42 98.6577 204.911 105.5 210.667 108.184ZM141.706 105.818C134.704 120.834 118.883 128.277 106.369 122.442C93.8559 116.607 89.3881 99.7035 96.3903 84.6873C103.392 69.6711 119.213 62.2284 131.727 68.0635C144.24 73.8987 148.708 90.802 141.706 105.818ZM121.754 93.5311C124.397 95.4345 126.102 97.3063 126.868 99.1465C127.648 100.958 127.497 103.023 126.415 105.343C125.346 107.635 123.727 109.139 121.556 109.857C119.399 110.546 117.03 110.288 114.448 109.085L113.97 108.862L112.408 112.211L110.015 111.096L111.739 107.398C109.893 105.831 108.758 104.137 108.337 102.316L107.038 105.1L102.862 103.152L106.797 94.7128L110.539 96.4574C110.321 97.9093 110.451 99.2944 110.931 100.613C111.411 101.931 112.221 103.033 113.362 103.918L116.527 97.1313L115.454 96.3661C113.087 94.6269 111.527 92.8227 110.775 90.9535C110.036 89.0554 110.16 87.0477 111.147 84.9306C112.175 82.7264 113.733 81.3167 115.82 80.7013C117.908 80.0859 120.184 80.353 122.65 81.5025C123.085 81.7054 123.397 81.8687 123.586 81.9923L125.189 78.5556L127.582 79.6713L125.776 83.5431C127.081 84.6813 127.977 86.0169 128.462 87.5498L129.517 85.2876L133.433 87.1133L130.085 94.2913L126.475 92.6076C126.725 90.2529 125.972 88.348 124.214 86.8928L121.273 93.2007L121.754 93.5311ZM117.362 86.8223C116.983 87.6344 116.933 88.4231 117.212 89.1886C117.504 89.925 118.141 90.7165 119.123 91.5629L121.943 85.5161C120.886 85.0582 119.945 84.955 119.122 85.2066C118.341 85.4427 117.754 85.9813 117.362 86.8223ZM115.633 105.294C116.704 105.723 117.652 105.812 118.475 105.56C119.341 105.293 119.99 104.696 120.423 103.768C120.883 102.782 120.981 101.927 120.718 101.204C120.455 100.481 119.774 99.6696 118.676 98.769L115.633 105.294Z"
            fill="#85BB65" />
        <animateTransform begin="loopOut.end" attributeName="transform" type="translate" from="0 0" to="0 -1000"
            dur="0.01s" fill="freeze" additive="replace" />
    </g>
    <g filter="url(#filter8_d)" transform="translate(0 -1000)" visibility="visible">
        <animateTransform id="fifth" begin="fourth.end" attributeName="transform" type="translate" from="0 -250"
            to="0 0" dur="1s" fill="freeze" />
        <g filter="url(#filter9_d)">
            <rect x="47.5481" y="0.675537" width="200" height="100" transform="rotate(25 47.5481 0.675537)"
                fill="white" />
        </g>
        <path fill-rule="evenodd" clip-rule="evenodd"
            d="M228.791 84.5237L224.26 82.4106L52.9675 2.53571L47.5297 0L44.994 5.43785L6.53572 87.9118L4 93.3497L9.43785 95.8854L180.73 175.76L185.262 177.873L186.168 178.296L229.698 84.9463L228.791 84.5237ZM208.667 101.184C210.735 102.149 212.944 102.445 215.05 102.162L190.697 154.386C189.561 152.591 187.914 151.089 185.846 150.125C180.089 147.441 173.247 149.931 170.563 155.687C169.271 158.458 169.178 161.48 170.071 164.169L24.8101 96.4333C27.444 95.3888 29.6995 93.3747 30.9915 90.604C33.6757 84.8478 31.1853 78.0055 25.4291 75.3214C23.5111 74.427 21.4726 74.1071 19.5074 74.2911L43.6549 22.5067C44.7771 24.1304 46.3325 25.4864 48.2505 26.3807C54.0067 29.0649 60.8489 26.5745 63.5331 20.8183C64.4809 18.7858 64.7835 16.6178 64.525 14.5453L207.272 81.1095C205.519 82.2436 204.052 83.869 203.105 85.9015C200.42 91.6577 202.911 98.5 208.667 101.184ZM139.706 98.8182C132.704 113.834 116.883 121.277 104.369 115.442C91.8559 109.607 87.3881 92.7035 94.3903 77.6873C101.392 62.6711 117.213 55.2284 129.727 61.0635C142.24 66.8987 146.708 83.802 139.706 98.8182ZM119.754 86.5311C122.397 88.4345 124.102 90.3063 124.868 92.1465C125.648 93.9577 125.497 96.0233 124.415 98.3435C123.346 100.635 121.727 102.139 119.556 102.857C117.399 103.546 115.03 103.288 112.448 102.085L111.97 101.862L110.408 105.211L108.015 104.096L109.739 100.398C107.893 98.8307 106.758 97.1366 106.337 95.3156L105.038 98.0998L100.862 96.1524L104.797 87.7128L108.539 89.4574C108.321 90.9093 108.451 92.2944 108.931 93.6127C109.411 94.931 110.221 96.0327 111.362 96.9177L114.527 90.1313L113.454 89.3661C111.087 87.6269 109.527 85.8227 108.775 83.9535C108.036 82.0554 108.16 80.0477 109.147 77.9306C110.175 75.7264 111.733 74.3167 113.82 73.7013C115.908 73.0859 118.184 73.353 120.65 74.5025C121.085 74.7054 121.397 74.8687 121.586 74.9923L123.189 71.5556L125.582 72.6713L123.776 76.5431C125.081 77.6813 125.977 79.0169 126.462 80.5498L127.517 78.2876L131.433 80.1133L128.085 87.2913L124.475 85.6076C124.725 83.2529 123.972 81.348 122.214 79.8928L119.273 86.2007L119.754 86.5311ZM115.362 79.8223C114.983 80.6344 114.933 81.4231 115.212 82.1886C115.504 82.925 116.141 83.7165 117.123 84.5629L119.943 78.5161C118.886 78.0582 117.945 77.955 117.122 78.2066C116.341 78.4427 115.754 78.9813 115.362 79.8223ZM113.633 98.2945C114.704 98.7233 115.652 98.812 116.475 98.5604C117.341 98.2934 117.99 97.6958 118.423 96.7678C118.883 95.7817 118.981 94.9272 118.718 94.2043C118.455 93.4813 117.774 92.6696 116.676 91.769L113.633 98.2945Z"
            fill="#85BB65" />
        <animateTransform begin="loopOut.end" attributeName="transform" type="translate" from="0 0" to="0 -1000"
            dur="0.01s" fill="freeze" additive="replace" />
    </g>
    <g>
        <rect x="131.262" y="39" width="15" height="0" transform="rotate(25 131.262 39)" fill="#C4C4C4">
            <animate id="band" begin="fifth.end" attributeName="height" from="0" to="103" dur="2s" fill="freeze" />
            <animate begin="loopOut.end" attributeName="height" from="103" to="0" dur="0.01s" fill="freeze"
                additive="replace" />
        </rect>
    </g>
    <g>
        <rect x="97" y="82" width="15" height="0" transform="rotate(25 0 0) skewX(25)" fill="#C4C4C4">
            <animate begin="fifth.end" attributeName="height" from="0" to="23" dur="2s" fill="freeze" />
            <animateTransform begin="fifth.end" attributeName="transform" type="translate" from="0 23" to="0 0" dur="2s"
                fill="freeze" additive="sum" />

            <animate begin="loopOut.end" attributeName="height" from="23" to="0" dur="0.01s" fill="freeze"
                additive="replace" />
        </rect>
    </g>
    <defs>
        <filter id="filter0_d" x="8" y="28" width="233.698" height="186.296" filterUnits="userSpaceOnUse"
            color-interpolation-filters="sRGB">
            <feFlood flood-opacity="0" result="BackgroundImageFix" />
            <feColorMatrix in="SourceAlpha" type="matrix" values="0 0 0 0 0 0 0 0 0 0 0 0 0 0 0 0 0 0 127 0"
                result="hardAlpha" />
            <feOffset dy="4" />
            <feGaussianBlur stdDeviation="2" />
            <feColorMatrix type="matrix" values="0 0 0 0 0 0 0 0 0 0 0 0 0 0 0 0 0 0 0.25 0" />
            <feBlend mode="normal" in2="BackgroundImageFix" result="effect1_dropShadow" />
            <feBlend mode="normal" in="SourceGraphic" in2="effect1_dropShadow" result="shape" />
        </filter>
        <filter id="filter1_d" x="9.28629" y="28.6755" width="231.523" height="183.154" filterUnits="userSpaceOnUse"
            color-interpolation-filters="sRGB">
            <feFlood flood-opacity="0" result="BackgroundImageFix" />
            <feColorMatrix in="SourceAlpha" type="matrix" values="0 0 0 0 0 0 0 0 0 0 0 0 0 0 0 0 0 0 127 0"
                result="hardAlpha" />
            <feOffset dy="4" />
            <feGaussianBlur stdDeviation="2" />
            <feColorMatrix type="matrix" values="0 0 0 0 0 0 0 0 0 0 0 0 0 0 0 0 0 0 0.25 0" />
            <feBlend mode="normal" in2="BackgroundImageFix" result="effect1_dropShadow" />
            <feBlend mode="normal" in="SourceGraphic" in2="effect1_dropShadow" result="shape" />
        </filter>
        <filter id="filter2_d" x="6" y="21" width="233.698" height="186.296" filterUnits="userSpaceOnUse"
            color-interpolation-filters="sRGB">
            <feFlood flood-opacity="0" result="BackgroundImageFix" />
            <feColorMatrix in="SourceAlpha" type="matrix" values="0 0 0 0 0 0 0 0 0 0 0 0 0 0 0 0 0 0 127 0"
                result="hardAlpha" />
            <feOffset dy="4" />
            <feGaussianBlur stdDeviation="2" />
            <feColorMatrix type="matrix" values="0 0 0 0 0 0 0 0 0 0 0 0 0 0 0 0 0 0 0.25 0" />
            <feBlend mode="normal" in2="BackgroundImageFix" result="effect1_dropShadow" />
            <feBlend mode="normal" in="SourceGraphic" in2="effect1_dropShadow" result="shape" />
        </filter>
        <filter id="filter3_d" x="7.28629" y="21.6755" width="231.523" height="183.154" filterUnits="userSpaceOnUse"
            color-interpolation-filters="sRGB">
            <feFlood flood-opacity="0" result="BackgroundImageFix" />
            <feColorMatrix in="SourceAlpha" type="matrix" values="0 0 0 0 0 0 0 0 0 0 0 0 0 0 0 0 0 0 127 0"
                result="hardAlpha" />
            <feOffset dy="4" />
            <feGaussianBlur stdDeviation="2" />
            <feColorMatrix type="matrix" values="0 0 0 0 0 0 0 0 0 0 0 0 0 0 0 0 0 0 0.25 0" />
            <feBlend mode="normal" in2="BackgroundImageFix" result="effect1_dropShadow" />
            <feBlend mode="normal" in="SourceGraphic" in2="effect1_dropShadow" result="shape" />
        </filter>
        <filter id="filter4_d" x="4" y="14" width="233.698" height="186.296" filterUnits="userSpaceOnUse"
            color-interpolation-filters="sRGB">
            <feFlood flood-opacity="0" result="BackgroundImageFix" />
            <feColorMatrix in="SourceAlpha" type="matrix" values="0 0 0 0 0 0 0 0 0 0 0 0 0 0 0 0 0 0 127 0"
                result="hardAlpha" />
            <feOffset dy="4" />
            <feGaussianBlur stdDeviation="2" />
            <feColorMatrix type="matrix" values="0 0 0 0 0 0 0 0 0 0 0 0 0 0 0 0 0 0 0.25 0" />
            <feBlend mode="normal" in2="BackgroundImageFix" result="effect1_dropShadow" />
            <feBlend mode="normal" in="SourceGraphic" in2="effect1_dropShadow" result="shape" />
        </filter>
        <filter id="filter5_d" x="5.28629" y="14.6755" width="231.523" height="183.154" filterUnits="userSpaceOnUse"
            color-interpolation-filters="sRGB">
            <feFlood flood-opacity="0" result="BackgroundImageFix" />
            <feColorMatrix in="SourceAlpha" type="matrix" values="0 0 0 0 0 0 0 0 0 0 0 0 0 0 0 0 0 0 127 0"
                result="hardAlpha" />
            <feOffset dy="4" />
            <feGaussianBlur stdDeviation="2" />
            <feColorMatrix type="matrix" values="0 0 0 0 0 0 0 0 0 0 0 0 0 0 0 0 0 0 0.25 0" />
            <feBlend mode="normal" in2="BackgroundImageFix" result="effect1_dropShadow" />
            <feBlend mode="normal" in="SourceGraphic" in2="effect1_dropShadow" result="shape" />
        </filter>
        <filter id="filter6_d" x="2" y="7" width="233.698" height="186.296" filterUnits="userSpaceOnUse"
            color-interpolation-filters="sRGB">
            <feFlood flood-opacity="0" result="BackgroundImageFix" />
            <feColorMatrix in="SourceAlpha" type="matrix" values="0 0 0 0 0 0 0 0 0 0 0 0 0 0 0 0 0 0 127 0"
                result="hardAlpha" />
            <feOffset dy="4" />
            <feGaussianBlur stdDeviation="2" />
            <feColorMatrix type="matrix" values="0 0 0 0 0 0 0 0 0 0 0 0 0 0 0 0 0 0 0.25 0" />
            <feBlend mode="normal" in2="BackgroundImageFix" result="effect1_dropShadow" />
            <feBlend mode="normal" in="SourceGraphic" in2="effect1_dropShadow" result="shape" />
        </filter>
        <filter id="filter7_d" x="3.28629" y="7.67554" width="231.523" height="183.154" filterUnits="userSpaceOnUse"
            color-interpolation-filters="sRGB">
            <feFlood flood-opacity="0" result="BackgroundImageFix" />
            <feColorMatrix in="SourceAlpha" type="matrix" values="0 0 0 0 0 0 0 0 0 0 0 0 0 0 0 0 0 0 127 0"
                result="hardAlpha" />
            <feOffset dy="4" />
            <feGaussianBlur stdDeviation="2" />
            <feColorMatrix type="matrix" values="0 0 0 0 0 0 0 0 0 0 0 0 0 0 0 0 0 0 0.25 0" />
            <feBlend mode="normal" in2="BackgroundImageFix" result="effect1_dropShadow" />
            <feBlend mode="normal" in="SourceGraphic" in2="effect1_dropShadow" result="shape" />
        </filter>
        <filter id="filter8_d" x="0" y="0" width="233.698" height="186.296" filterUnits="userSpaceOnUse"
            color-interpolation-filters="sRGB">
            <feFlood flood-opacity="0" result="BackgroundImageFix" />
            <feColorMatrix in="SourceAlpha" type="matrix" values="0 0 0 0 0 0 0 0 0 0 0 0 0 0 0 0 0 0 127 0"
                result="hardAlpha" />
            <feOffset dy="4" />
            <feGaussianBlur stdDeviation="2" />
            <feColorMatrix type="matrix" values="0 0 0 0 0 0 0 0 0 0 0 0 0 0 0 0 0 0 0.25 0" />
            <feBlend mode="normal" in2="BackgroundImageFix" result="effect1_dropShadow" />
            <feBlend mode="normal" in="SourceGraphic" in2="effect1_dropShadow" result="shape" />
        </filter>
        <filter id="filter9_d" x="1.28629" y="0.675537" width="231.523" height="183.154" filterUnits="userSpaceOnUse"
            color-interpolation-filters="sRGB">
            <feFlood flood-opacity="0" result="BackgroundImageFix" />
            <feColorMatrix in="SourceAlpha" type="matrix" values="0 0 0 0 0 0 0 0 0 0 0 0 0 0 0 0 0 0 127 0"
                result="hardAlpha" />
            <feOffset dy="4" />
            <feGaussianBlur stdDeviation="2" />
            <feColorMatrix type="matrix" values="0 0 0 0 0 0 0 0 0 0 0 0 0 0 0 0 0 0 0.25 0" />
            <feBlend mode="normal" in2="BackgroundImageFix" result="effect1_dropShadow" />
            <feBlend mode="normal" in="SourceGraphic" in2="effect1_dropShadow" result="shape" />
        </filter>
    </defs>
</svg>